<svg id="Слой_1" data-name="Слой 1" xmlns="http://www.w3.org/2000/svg" viewBox="0 0 375.85 93.31"><defs><style>.cls-1{fill:#045a95}.cls-2{fill:#fe9900}</style></defs><path class="cls-1" d="M326.59 319.68a10 10 0 01-4.43-3.5 9.16 9.16 0 01-1.56-5.3v-1.06a.54.54 0 01.17-.4.53.53 0 01.41-.17h5.46a.53.53 0 01.41.17.54.54 0 01.17.4v.72a3.93 3.93 0 001.77 3.24 7.86 7.86 0 004.8 1.32 5.65 5.65 0 003.78-1.08 3.4 3.4 0 001.25-2.66 2.67 2.67 0 00-.77-1.94A6.68 6.68 0 00336 308c-.88-.4-2.28-1-4.2-1.66a40.31 40.31 0 01-5.44-2.25 11 11 0 01-3.74-3.14 7.9 7.9 0 01-1.51-4.92 8.67 8.67 0 011.49-5 9.45 9.45 0 014.12-3.31 15.07 15.07 0 016.09-1.15 15.41 15.41 0 016.49 1.3 10.52 10.52 0 014.46 3.62 9.24 9.24 0 011.61 5.39v.72a.58.58 0 01-.17.41.56.56 0 01-.41.16h-5.51a.55.55 0 01-.57-.57v-.39a4.35 4.35 0 00-1.66-3.42 6.7 6.7 0 00-4.53-1.42 5.71 5.71 0 00-3.52 1 3.12 3.12 0 00-1.3 2.63 2.84 2.84 0 00.74 2 6.42 6.42 0 002.21 1.46q1.46.66 4.53 1.75a56.12 56.12 0 015.34 2.21 10.64 10.64 0 013.5 2.85 7.48 7.48 0 011.56 4.92 8.59 8.59 0 01-3.31 7.12q-3.3 2.61-9 2.61a17.19 17.19 0 01-6.68-1.24zm27.5-.68a10.44 10.44 0 01-4-5.27 17.46 17.46 0 01-.82-5.66 16.79 16.79 0 01.82-5.56 9.87 9.87 0 014-5.13 12.79 12.79 0 0113.4.05 9.13 9.13 0 013.86 4.84 6 6 0 01.39 1.72v.1c0 .29-.16.46-.48.53l-5.52.81h-.09a.58.58 0 01-.58-.48l-.14-.76a3.67 3.67 0 00-1.49-2.07 4.59 4.59 0 00-2.73-.81 4.3 4.3 0 00-2.59.77 4 4 0 00-1.48 2.11 11.51 11.51 0 00-.53 3.93 12.86 12.86 0 00.48 3.93 4.25 4.25 0 001.51 2.25 4.17 4.17 0 002.61.82 4.47 4.47 0 002.61-.79 4.08 4.08 0 001.56-2.19.67.67 0 000-.28.21.21 0 00.05-.15c0-.38.25-.54.67-.48l5.51.87a.51.51 0 01.48.52 6.23 6.23 0 01-.29 1.44 9 9 0 01-3.9 5 12.38 12.38 0 01-6.69 1.82 11.46 11.46 0 01-6.62-1.88zM391 296.57a9.15 9.15 0 013.81 2.95 6.88 6.88 0 011.37 4.17v16.25a.58.58 0 01-.17.41.56.56 0 01-.41.16H390a.55.55 0 01-.57-.57v-1.58a.19.19 0 00-.1-.19c-.06 0-.13 0-.19.09q-2 2.64-6.47 2.64a9.5 9.5 0 01-6.05-1.82 6.46 6.46 0 01-2.3-5.37 6.9 6.9 0 012.59-5.73q2.6-2 7.39-2h4.89a.21.21 0 00.24-.24v-1.05a3.19 3.19 0 00-1-2.47 4.12 4.12 0 00-2.88-.89 5.22 5.22 0 00-2.47.53 2.46 2.46 0 00-1.27 1.48.54.54 0 01-.62.48l-5.8-.76c-.39-.07-.56-.21-.53-.44a6.36 6.36 0 011.61-3.64 9.3 9.3 0 013.73-2.54 14.14 14.14 0 015.21-.91 13.65 13.65 0 015.59 1.04zm-3 18.19a3.41 3.41 0 001.44-2.83v-1.72a.21.21 0 00-.24-.24h-3.46a6.1 6.1 0 00-3.38.81 2.62 2.62 0 00-1.22 2.3 2.5 2.5 0 00.91 2 3.73 3.73 0 002.45.74 5.56 5.56 0 003.5-1.06zm13.12 5.59a.58.58 0 01-.17-.41v-32.41a.58.58 0 01.58-.58h5.61a.54.54 0 01.4.17.53.53 0 01.17.41v32.41a.54.54 0 01-.17.41.54.54 0 01-.4.16h-5.61a.56.56 0 01-.41-.16zM413.58 292a3.94 3.94 0 112.71 1.08 3.7 3.7 0 01-2.71-1.08zm-.58 28.35a.58.58 0 01-.17-.41V296.4a.58.58 0 01.58-.58H419a.54.54 0 01.4.17.53.53 0 01.17.41v23.54a.54.54 0 01-.17.41.54.54 0 01-.4.16h-5.61a.56.56 0 01-.39-.16zm30.91-22.51a8.62 8.62 0 012.35 6.37v15.73a.58.58 0 01-.17.41.56.56 0 01-.41.16h-5.61a.55.55 0 01-.57-.57V305.6a4.48 4.48 0 00-1.08-3.11 4 4 0 00-5.71 0 4.48 4.48 0 00-1.08 3.11v14.34a.55.55 0 01-.57.57h-5.61a.56.56 0 01-.41-.16.58.58 0 01-.17-.41v-23.49a.58.58 0 01.58-.58h5.61a.58.58 0 01.41.17.56.56 0 01.16.41v1.68a.2.2 0 00.1.19.1.1 0 00.14-.05 6.7 6.7 0 015.85-2.78 8.36 8.36 0 016.19 2.35zm22.41-1.84a.57.57 0 01.41-.17h5.61a.54.54 0 01.4.17.53.53 0 01.17.41v21.86q0 6.29-3.62 9A15.23 15.23 0 01460 330a32.53 32.53 0 01-3.74-.24c-.32 0-.48-.24-.48-.62l.19-4.94c0-.42.22-.59.67-.53a19.63 19.63 0 003.17.29 7.35 7.35 0 004.72-1.34 5.26 5.26 0 001.65-4.32c0-.09 0-.15-.09-.17a.2.2 0 00-.19.08 6.92 6.92 0 01-5.33 2 11.26 11.26 0 01-5.73-1.51 8.34 8.34 0 01-3.71-4.87 18.75 18.75 0 01-.72-5.7 18.14 18.14 0 01.86-6.09 9.6 9.6 0 013.41-4.7 9.09 9.09 0 015.56-1.77 7.2 7.2 0 015.66 2.2.2.2 0 00.19.08c.06 0 .09-.08.09-.17v-1.15a.57.57 0 01.14-.53zm-.17 12a22.3 22.3 0 00-.09-2.3 8.13 8.13 0 00-.34-1.53 4.34 4.34 0 00-1.44-2.09 3.89 3.89 0 00-2.49-.79 3.8 3.8 0 00-2.44.79 4.57 4.57 0 00-1.49 2.09 12.3 12.3 0 00-.1 7.71 4.15 4.15 0 001.51 2.09 4.22 4.22 0 002.57.79 4 4 0 002.54-.79 4.1 4.1 0 001.39-2 16.23 16.23 0 00.38-3.97z" transform="translate(-212.07 -253.34)"/><path class="cls-2" d="M507.19 288.2a9.13 9.13 0 013.72 3.67 11 11 0 011.32 5.44 10.23 10.23 0 01-1.37 5.32 9.2 9.2 0 01-3.86 3.57 12.19 12.19 0 01-5.68 1.27h-6.81c-.16 0-.23.08-.23.24v12.23a.58.58 0 01-.17.41.57.57 0 01-.41.16h-5.61a.56.56 0 01-.41-.16.57.57 0 01-.16-.41v-32.46a.57.57 0 01.16-.41.56.56 0 01.41-.16h13.52a11.56 11.56 0 015.58 1.29zm-3 12.59a4.37 4.37 0 001.34-3.34 4.49 4.49 0 00-1.34-3.4 4.9 4.9 0 00-3.55-1.29h-6.09c-.16 0-.23.08-.23.24v8.82c0 .16.07.24.23.24h6.09a5 5 0 003.53-1.27zm32.39 8.94a.55.55 0 01-.62.57h-14.82c-.19 0-.25.08-.19.24a8.6 8.6 0 00.53 1.92q1.24 2.69 5.08 2.68a5.78 5.78 0 004.84-2.49.43.43 0 01.77-.09l3.45 3.4a.65.65 0 01.24.43.89.89 0 01-.19.38 10.38 10.38 0 01-4.08 3.05 13.57 13.57 0 01-5.46 1.08 12.51 12.51 0 01-7-1.87 10.4 10.4 0 01-4.1-5.23 16.47 16.47 0 01-1-6.28 13.76 13.76 0 01.72-4.65 10.53 10.53 0 013.86-5.42 10.77 10.77 0 016.54-2 10.65 10.65 0 017.69 2.78 12.18 12.18 0 013.53 7.43 21.16 21.16 0 01.21 4.07zm-15.34-5.61a11.54 11.54 0 00-.34 1.53.21.21 0 00.24.24h8.3c.19 0 .25-.08.19-.24-.16-.92-.24-1.37-.24-1.34a4.16 4.16 0 00-1.51-2.23 4.37 4.37 0 00-2.66-.79 3.84 3.84 0 00-3.98 2.83zm34.66-7.55a9.15 9.15 0 013.81 2.95 6.88 6.88 0 011.37 4.17v16.25a.58.58 0 01-.17.41.56.56 0 01-.41.16h-5.61a.54.54 0 01-.4-.16.54.54 0 01-.17-.41v-1.58c0-.1 0-.16-.1-.19s-.13 0-.19.09q-2 2.64-6.47 2.64a9.47 9.47 0 01-6-1.82 6.43 6.43 0 01-2.3-5.37 6.87 6.87 0 012.59-5.73q2.58-2 7.38-2h4.89a.21.21 0 00.24-.24v-1.05a3.19 3.19 0 00-1-2.47 4.12 4.12 0 00-2.88-.89 5.22 5.22 0 00-2.47.53 2.49 2.49 0 00-1.27 1.48.54.54 0 01-.62.48l-5.8-.76c-.38-.07-.56-.21-.53-.44a6.43 6.43 0 011.61-3.64 9.33 9.33 0 013.74-2.54 14.08 14.08 0 015.2-.91 13.62 13.62 0 015.56 1.04zm-3 18.19a3.41 3.41 0 001.44-2.83v-1.72a.21.21 0 00-.24-.24h-3.45a6.06 6.06 0 00-3.38.81 2.61 2.61 0 00-1.23 2.3 2.48 2.48 0 00.92 2 3.7 3.7 0 002.44.74 5.56 5.56 0 003.48-1.06zm13.1 5.59a.57.57 0 01-.16-.41v-32.41a.56.56 0 01.16-.41.57.57 0 01.41-.17H572a.58.58 0 01.41.17.56.56 0 01.16.41v16.16c0 .09 0 .15.1.16a.18.18 0 00.19-.07l6.52-7.57a1 1 0 01.72-.34h6.38c.32 0 .48.11.48.34a.81.81 0 01-.15.38l-6.08 7.72a.39.39 0 000 .34l7.14 15.19a.89.89 0 01.1.29c0 .26-.18.38-.53.38h-5.9a.67.67 0 01-.67-.43l-4.75-11.22a.23.23 0 00-.16-.12.14.14 0 00-.17.08l-3.07 3.83a.89.89 0 00-.1.29v7a.55.55 0 01-.57.57h-5.65a.56.56 0 01-.4-.16z" transform="translate(-212.07 -253.34)"/><path class="cls-1" d="M273.82 300.9l-1.9-5.44a4.43 4.43 0 01-1.46.25 3.39 3.39 0 01-.55 0l-14.18 18-9-9.34a4.61 4.61 0 01-1.4.22h-.43l-7.42 12.23-10 16.55a4.51 4.51 0 01.3 5 51.21 51.21 0 0055.41.51 48.79 48.79 0 003.07-2.09zm-32.23 1.57a4.51 4.51 0 118-.89l5.84 6.09 11.15-14.13a4.53 4.53 0 012.34-6.62l-11.7-33.58-32.32 57.29-9.27 16.44a51.87 51.87 0 005.14 5.64 4.49 4.49 0 013.11-1.24h.12L234 315z" transform="translate(-212.07 -253.34)"/><path class="cls-2" d="M234 315l-10 16.46h-.11a4.49 4.49 0 00-3.11 1.24 51.87 51.87 0 01-5.14-5.64 47.65 47.65 0 01-3.56-5.15l8-13.6 4.79 2.31zm49.2 23.76a51 51 0 01-55.41-.51 4.51 4.51 0 00-.3-5l10-16.55 16.29 7.86z" transform="translate(-212.07 -253.34)"/><path d="M298.79 323.4a51.3 51.3 0 01-12.52 13.26c-1 .74-2 1.44-3.07 2.1a51.21 51.21 0 01-45.28 4.65l15.89-18.82 20-23.69 12-14.24z" transform="translate(-212.07 -253.34)" fill="#ffce00"/></svg>